<svg width="180" height="180" viewBox="0 0 180 180" fill="none" xmlns="http://www.w3.org/2000/svg">
<path fill-rule="evenodd" clip-rule="evenodd" d="M121.08 35.4817C127.768 37.1659 136.858 39.4548 136.858 53.1614H136.869V65.7659C136.869 80.2861 128.764 85.4549 115.661 85.4549C102.558 85.4549 94.544 80.2861 94.544 65.7659V53.7054H113.938V65.6752C113.938 67.3075 114.55 67.7609 115.491 67.7609C116.432 67.7609 116.953 67.3075 116.953 65.6752V54.4309C116.953 51.7287 113.897 50.9533 110.034 49.9732C103.396 48.289 94.374 46.0001 94.374 32.2935V19.689C94.374 5.16878 102.399 0 115.491 0C128.583 0 136.518 5.16878 136.518 19.689V31.7495H117.123V19.7796C117.123 18.1474 116.613 17.6033 115.661 17.6033C114.709 17.6033 114.108 18.1474 114.108 19.7796V31.024C114.108 33.7262 117.187 34.5016 121.08 35.4817ZM43.3565 65.6751C43.3565 80.4673 34.9119 85.4548 21.6386 85.4548C8.44461 85.4548 0 80.4673 0 65.6751V46.4396H20.1764V65.5844C20.1764 67.2167 20.8678 67.6701 21.6386 67.6701C22.5001 67.6701 23.1008 67.2167 23.1008 65.5844V0.997375H43.3565V65.6751ZM139.239 0.997375V18.7821H149.497V84.4573H169.742V18.7821H180V0.997375H139.239ZM20.5726 178.888H0.158203V95.111H30.6041V112.964H20.5726V128.889H30.6041V146.47H20.5726V178.888ZM57.3329 94.1136C44.0142 94.1136 35.5356 99.1237 35.5356 113.961V160.038C35.5356 174.876 44.0142 179.886 57.3329 179.886C70.6516 179.886 79.0395 174.876 79.0395 160.038V113.961C79.0395 99.1237 70.5609 94.1136 57.3329 94.1136ZM58.8065 159.948C58.8065 161.591 58.115 162.044 57.3329 162.044C56.4714 162.044 55.8593 161.591 55.8593 159.948V114.052C55.8593 112.408 56.4601 111.955 57.3329 111.955C58.115 111.955 58.8065 112.408 58.8065 114.052V159.948ZM84.4126 113.961C84.4126 99.1237 92.8913 94.1136 106.21 94.1136C119.438 94.1136 127.917 99.1237 127.917 113.961V160.038C127.917 174.876 119.529 179.886 106.21 179.886C92.8913 179.886 84.4126 174.876 84.4126 160.038V113.961ZM106.21 162.044C106.992 162.044 107.683 161.591 107.683 159.948V114.052C107.683 112.408 106.992 111.955 106.21 111.955C105.337 111.955 104.736 112.408 104.736 114.052V159.948C104.736 161.591 105.348 162.044 106.21 162.044ZM159.405 95.111H133.277V178.888H159.405C173.766 178.888 176.872 173.697 176.872 159.131V114.879C176.872 100.314 173.755 95.1223 159.405 95.1223V95.111ZM156.548 158.757C156.548 160.31 156.117 161.036 154.474 161.036H153.612V112.952H154.474C156.117 112.952 156.548 113.678 156.548 115.231V158.757ZM90.0689 22.0577L78.7679 27.9633L90.0689 33.9482L84.5374 43.991L73.9958 36.6232L74.7666 49.8966H63.851L64.6104 36.6232L54.0802 43.991L48.6167 33.9482L59.929 27.9633L48.6167 22.0577L54.0802 12.0149L64.6104 19.3826L63.851 6.10931H74.7666L73.9958 19.3826L84.5374 12.0149L90.0689 22.0577Z" fill="black"/>
</svg>
