<svg version="1.0" xmlns="http://www.w3.org/2000/svg"
 width="2776.000000pt" height="341.000000pt" viewBox="0 0 2776.000000 341.000000"
 preserveAspectRatio="xMidYMid meet">
<g transform="translate(0.000000,341.000000) scale(0.100000,-0.100000)"
fill="#000000" stroke="none">
<path d="M15560 3399 c-378 -23 -718 -106 -982 -240 -360 -184 -614 -475 -737
-844 -75 -227 -96 -381 -88 -673 3 -158 10 -233 27 -317 64 -320 194 -575 400
-785 286 -292 682 -458 1240 -521 152 -18 648 -18 800 0 550 62 946 226 1227
509 223 223 356 485 419 827 16 82 19 148 19 360 -1 243 -3 268 -28 386 -69
326 -194 564 -408 778 -313 314 -761 481 -1389 521 -184 11 -300 11 -500 -1z
m520 -529 c547 -49 894 -243 1066 -595 150 -309 154 -808 10 -1121 -132 -284
-367 -463 -741 -564 -189 -50 -601 -75 -862 -51 -675 62 -1050 354 -1150 894
-23 129 -23 417 1 552 44 243 133 415 289 561 192 178 481 288 857 323 126 12
399 12 530 1z"/>
<path d="M10 1705 l0 -1615 293 2 292 3 3 457 2 457 1068 4 c1059 3 1068 3
1164 25 382 87 638 274 790 577 137 271 157 658 50 970 -124 365 -424 612
-846 699 -150 32 -329 36 -1568 36 l-1248 0 0 -1615z m2620 1062 c184 -32 339
-136 409 -276 45 -88 63 -183 63 -331 0 -245 -54 -379 -196 -487 -178 -135
-261 -143 -1478 -143 l-828 0 0 631 0 630 968 -4 c835 -4 980 -6 1062 -20z"/>
<path d="M5893 3288 c-123 -209 -1834 -3169 -1839 -3181 -6 -16 19 -17 327
-17 l334 0 200 350 200 350 1169 -3 1168 -2 200 -348 200 -347 329 0 c181 0
329 4 329 8 0 5 -418 731 -929 1613 l-928 1604 -371 3 -370 2 -19 -32z m836
-1247 c231 -404 419 -736 418 -738 -2 -2 -394 -2 -870 -1 l-867 3 428 745
c235 410 431 751 436 759 7 11 12 9 22 -10 6 -13 202 -354 433 -758z"/>
<path d="M9467 3313 c-4 -3 -7 -730 -7 -1615 l0 -1608 295 0 295 0 0 550 0
550 1265 0 1265 0 0 260 0 260 -1265 0 -1265 0 0 540 0 540 1400 0 1400 0 0
265 0 265 -1688 0 c-929 0 -1692 -3 -1695 -7z"/>
<path d="M18965 3308 c-3 -7 -4 -733 -3 -1613 l3 -1600 295 0 295 0 3 542 2
543 1018 0 c559 0 1057 -5 1105 -10 119 -12 181 -34 228 -81 70 -70 73 -88 77
-571 l3 -428 295 0 295 0 -3 478 c-4 413 -7 485 -21 537 -58 202 -194 331
-406 385 l-44 12 72 39 c278 151 418 386 438 740 10 181 -28 393 -96 527 -134
265 -396 419 -832 489 -92 15 -251 17 -1412 20 -1070 3 -1308 2 -1312 -9z
m2643 -541 c189 -42 319 -166 363 -347 20 -82 17 -280 -5 -368 -42 -168 -172
-289 -353 -328 -122 -26 -405 -34 -1235 -34 l-818 0 0 550 0 551 988 -4 c866
-3 996 -6 1060 -20z"/>
<path d="M23280 3313 c0 -5 432 -492 960 -1083 l959 -1075 1 -532 0 -533 315
0 315 0 0 529 0 530 960 1076 c528 592 960 1080 960 1086 0 11 -750 12 -766 1
-5 -4 -335 -375 -732 -824 -397 -449 -725 -819 -729 -821 -5 -3 -339 368 -742
824 l-735 829 -383 0 c-211 0 -383 -3 -383 -7z"/>
</g>
</svg>
