<svg xmlns="http://www.w3.org/2000/svg" data-name="Layer 2" viewBox="0 0 106.66 27.77"><g data-name="Layer 1"><path d="M30.21 26.87V1.93c0-.49.4-.9.9-.9h2.95c.49 0 .9.4.9.9v25.04c0 .49-.31.8-.8.8h-3.04c-.49 0-.9-.4-.9-.9Zm18.52.77c-1.33 0-2.56-.26-3.7-.77s-2.14-1.23-3-2.13c-.86-.91-1.54-1.95-2.04-3.14s-.74-2.46-.74-3.81.25-2.65.74-3.84a9.894 9.894 0 0 1 2.04-3.14c.86-.91 1.86-1.61 3-2.12s2.37-.76 3.7-.76 2.43.23 3.51.68c1.07.45 2 1.09 2.78 1.91V9.21c0-.49.4-.9.9-.9h2.16c.49 0 .9.4.9.9v17.16c0 .49-.4.9-.9.9h-2.16c-.49 0-.9-.4-.9-.9v-1.31c-.78.8-1.71 1.43-2.78 1.9-1.07.46-2.24.69-3.51.69Zm.54-3.98c1.07 0 2.04-.26 2.91-.79.86-.53 1.55-1.23 2.07-2.12.52-.88.77-1.87.77-2.97s-.26-2.08-.77-2.97a6.12 6.12 0 0 0-2.07-2.13c-.86-.54-1.83-.81-2.91-.81s-2.02.27-2.89.81a6.06 6.06 0 0 0-2.08 2.13c-.52.88-.77 1.87-.77 2.97s.26 2.06.77 2.95c.52.89 1.21 1.61 2.07 2.13.86.53 1.83.79 2.91.79Zm14.81 2.7V9.2c0-.49.4-.9.9-.9h2.25c.49 0 .9.4.9.9 0 .76.9 1.19 1.46.69.35-.31.72-.59 1.13-.83.85-.51 1.84-.82 2.96-.91.45-.04.87.24.98.68 0 0 1.24 1.97.54 2.7-.15.16-.83.54-1.06.54-1.12 0-2.1.24-2.94.73-.84.48-1.5 1.18-1.96 2.1-.46.92-.69 2.04-.69 3.36v8.11c0 .49-.4.9-.9.9h-2.66c-.49 0-.9-.4-.9-.9ZM80.73 5.21c-.48 0-.92-.12-1.31-.35s-.7-.54-.93-.93c-.23-.39-.35-.83-.35-1.31s.12-.95.35-1.34c.23-.39.54-.7.93-.93.39-.23.83-.35 1.31-.35s.95.12 1.34.35c.39.23.7.54.93.93.23.39.35.84.35 1.34s-.12.92-.35 1.31c-.23.39-.54.7-.93.93s-.84.35-1.34.35Zm-2.24 21.15V9.2c0-.49.4-.9.9-.9h2.66c.49 0 .9.4.9.9v17.16c0 .49-.4.9-.9.9h-2.66c-.49 0-.9-.4-.9-.9Zm17.94 1.28c-1.33 0-2.56-.26-3.7-.77s-2.14-1.23-3-2.13c-.86-.91-1.54-1.95-2.04-3.14s-.74-2.46-.74-3.81.25-2.65.74-3.84a9.894 9.894 0 0 1 2.04-3.14c.86-.91 1.86-1.61 3-2.12s2.37-.76 3.7-.76 2.43.23 3.51.68c1.07.45 2 1.09 2.78 1.91V9.21c0-.49.4-.9.9-.9h2.16c.49 0 .9.4.9.9v17.16c0 .49-.4.9-.9.9h-2.16c-.49 0-.9-.4-.9-.9v-1.31c-.78.8-1.71 1.43-2.78 1.9-1.07.46-2.24.69-3.51.69Zm.53-3.98c1.07 0 2.04-.26 2.91-.79.86-.53 1.55-1.23 2.07-2.12.52-.88.77-1.87.77-2.97s-.26-2.08-.77-2.97a6.12 6.12 0 0 0-2.07-2.13c-.86-.54-1.83-.81-2.91-.81s-2.02.27-2.89.81a6.06 6.06 0 0 0-2.08 2.13c-.52.88-.77 1.87-.77 2.97s.26 2.06.77 2.95c.52.89 1.21 1.61 2.07 2.13.86.53 1.83.79 2.91.79Z" style="fill:#fff"/><path d="M0 6.87c4.77 0 8.64 3.87 8.64 8.64v11.96C3.87 27.47 0 23.6 0 18.82V6.87Z" style="fill:#004dcf"/><rect width="8.64" height="8.64" x="10.83" y="18.82" rx="4.32" ry="4.32" style="fill:#ff839e"/></g></svg>